<svg width="195" height="45" viewBox="0 0 195 45" fill="none" xmlns="http://www.w3.org/2000/svg">
<path fill="#0E1112" d="M73.4,33c0.6,1.5,1.4,2.3,2.5,2.3V36c-1-0.1-2.2-0.1-3.9-0.1c-2.1,0-3.6,0-4.6,0.1v-0.7c0.9,0,1.6-0.2,1.9-0.3
	c0.4-0.2,0.6-0.5,0.6-1c0-0.4-0.1-1-0.4-1.7l-2.2-5.9h-8.7l-1.5,3.8c-0.5,1.3-0.7,2.3-0.7,3c0,0.7,0.3,1.3,0.8,1.6
	c0.5,0.3,1.3,0.5,2.4,0.5V36c-1.4-0.1-2.7-0.1-4.1-0.1c-1.1,0-2,0-2.7,0.1v-0.7c1.2-0.3,2.1-1.3,2.8-3.1l8.5-21.8h0.6L73.4,33z
	 M67.1,25.6l-4-10.8l-4.1,10.8H67.1z M81.7,32.7c0,1,0.2,1.7,0.6,2.1c0.4,0.4,1.1,0.5,2.1,0.5V36c-2.2-0.1-3.7-0.1-4.4-0.1
	s-2.1,0-4.4,0.1v-0.8c1,0,1.7-0.2,2.1-0.5c0.4-0.4,0.6-1.1,0.6-2.1V12.1c0-1.1-0.2-1.9-0.6-2.4c-0.4-0.5-1.1-0.8-2.1-0.8V8.2
	c0.7,0.1,1.5,0.1,2.2,0.1c1.5,0,2.8-0.2,3.7-0.5V32.7z M89.7,8.5c0.6,0,1.2,0.2,1.6,0.7c0.5,0.5,0.7,1,0.7,1.6s-0.2,1.2-0.7,1.6
	c-0.5,0.5-1,0.7-1.6,0.7s-1.2-0.2-1.6-0.7c-0.5-0.5-0.7-1-0.7-1.6s0.2-1.2,0.7-1.6C88.5,8.7,89.1,8.5,89.7,8.5z M91.6,32.7
	c0,1,0.2,1.7,0.6,2.1c0.4,0.4,1.1,0.5,2.1,0.5V36c-2.2-0.1-3.7-0.1-4.4-0.1s-2.1,0-4.4,0.1v-0.8c1,0,1.7-0.2,2.1-0.5
	c0.4-0.4,0.6-1.1,0.6-2.1V21.4c0-1.1-0.2-1.9-0.6-2.4c-0.4-0.5-1.1-0.8-2.1-0.8v-0.8c0.8,0.1,1.5,0.1,2.2,0.1c1.5,0,2.8-0.2,3.7-0.5
	V32.7z M107.5,17c1.7,0,3,0.5,3.8,1.4c0.5,0.5,0.8,1.1,1,1.8s0.3,1.7,0.3,2.9v9.6c0,1,0.2,1.7,0.6,2.1c0.4,0.4,1.1,0.5,2.1,0.5V36
	c-2.2-0.1-3.6-0.1-4.3-0.1c-0.7,0-2,0-4,0.1v-0.8c0.9,0,1.5-0.2,1.8-0.5c0.4-0.4,0.5-1.1,0.5-2.1V22.2c0-1.3-0.2-2.4-0.6-3.1
	c-0.4-0.7-1.2-1.1-2.3-1.1c-1,0-1.9,0.3-2.6,0.9c-0.8,0.6-1.4,1.4-1.8,2.4c-0.4,1-0.6,2.1-0.6,3.3v8c0,1,0.2,1.7,0.5,2.1
	c0.4,0.4,1,0.5,1.9,0.5V36c-2-0.1-3.4-0.1-4-0.1c-0.7,0-2.1,0-4.3,0.1v-0.8c1,0,1.7-0.2,2.1-0.5c0.4-0.4,0.6-1.1,0.6-2.1V21.4
	c0-1.1-0.2-1.9-0.6-2.4c-0.4-0.5-1.1-0.8-2.1-0.8v-0.8c0.8,0.1,1.5,0.1,2.2,0.1c1.5,0,2.8-0.2,3.7-0.5v4.2c0.6-1.5,1.4-2.6,2.5-3.3
	C104.9,17.3,106.2,17,107.5,17z M121,36.3c-1.5,0-2.6-0.4-3.4-1.1c-0.7-0.8-1.1-1.8-1.1-3.2c0-1.1,0.3-2,0.9-2.7
	c0.6-0.7,1.3-1.2,2.1-1.7c0.8-0.4,1.9-0.8,3.2-1.3c1.3-0.5,2.3-0.9,3-1.3c0.6-0.4,1-0.9,1-1.5v-2.2c0-1.4-0.3-2.3-0.9-2.8
	c-0.6-0.5-1.4-0.8-2.4-0.8c-1.7,0-2.9,0.4-3.6,1.3c0.5,0.1,0.9,0.4,1.2,0.8c0.3,0.4,0.5,0.9,0.5,1.4c0,0.6-0.2,1.1-0.6,1.4
	c-0.4,0.3-0.9,0.5-1.5,0.5c-0.7,0-1.2-0.2-1.5-0.6c-0.3-0.4-0.5-0.9-0.5-1.5c0-0.6,0.1-1.1,0.4-1.4c0.3-0.4,0.7-0.8,1.3-1.2
	c0.6-0.4,1.3-0.7,2.2-1s1.9-0.4,2.9-0.4c1.9,0,3.3,0.4,4.2,1.3c0.6,0.6,1,1.2,1.2,2c0.2,0.8,0.3,1.8,0.3,3.1v10c0,0.6,0.1,1,0.3,1.3
	s0.5,0.4,0.9,0.4c0.3,0,0.6-0.1,0.8-0.2c0.3-0.1,0.5-0.3,0.8-0.6l0.4,0.6c-0.6,0.5-1.2,0.8-1.6,1c-0.4,0.2-1,0.3-1.7,0.3
	c-1.2,0-2-0.3-2.4-0.9c-0.5-0.6-0.7-1.4-0.7-2.3c-0.7,1.2-1.5,2-2.5,2.5C123.2,36,122.2,36.3,121,36.3z M122.6,34.8
	c1.6,0,2.9-0.9,4.1-2.7V25c-0.2,0.3-0.5,0.6-0.9,0.8s-1,0.5-1.8,0.9c-0.9,0.4-1.7,0.8-2.2,1.1c-0.6,0.3-1,0.8-1.4,1.4
	c-0.4,0.6-0.6,1.4-0.6,2.3c0,1.1,0.3,1.9,0.8,2.4C121,34.5,121.7,34.8,122.6,34.8z M150.8,11.2c-0.9,0-1.5,0.1-1.9,0.3
	c-0.4,0.1-0.6,0.4-0.8,0.8s-0.2,1.1-0.2,2v17.9c0,0.9,0.1,1.6,0.2,2c0.1,0.4,0.4,0.7,0.8,0.8c0.4,0.1,1,0.2,1.9,0.2h2.6
	c1.5,0,2.6-0.2,3.4-0.6c0.8-0.4,1.4-1.1,1.7-2.1s0.6-2.3,0.8-4.1h0.8c-0.1,0.7-0.1,1.7-0.1,3c0,1.4,0.1,2.9,0.3,4.6
	c-1.6-0.1-4.4-0.1-8.2-0.1c-4.6,0-8.1,0-10.4,0.1v-0.7c0.9,0,1.5-0.1,1.9-0.3c0.4-0.1,0.7-0.4,0.8-0.8c0.1-0.4,0.2-1.1,0.2-2V14.3
	c0-0.9-0.1-1.6-0.2-2s-0.4-0.7-0.8-0.8c-0.4-0.1-1-0.2-1.9-0.3v-0.7c1,0.1,2.5,0.1,4.6,0.1c1.9,0,3.4,0,4.6-0.1V11.2z M177.3,31.7
	c-0.4,1.3-1.2,2.5-2.4,3.4c-1.2,0.9-2.6,1.4-4.3,1.4c-1.7,0-3.2-0.4-4.4-1.2c-1.2-0.8-2.2-1.9-2.9-3.3c-0.6-1.4-1-3-1-4.9
	c0-2.1,0.3-3.9,1-5.4s1.6-2.7,2.8-3.5c1.2-0.8,2.7-1.3,4.3-1.3c2.2,0,3.8,0.7,5,2c1.2,1.3,1.8,3.3,1.8,5.9h-11.3
	c-0.1,0.7-0.1,1.4-0.1,2.3c0,1.6,0.3,3,0.8,4.1c0.5,1.2,1.2,2.1,2.1,2.7c0.9,0.6,1.8,0.9,2.7,0.9c1.2,0,2.2-0.3,3.1-0.8
	c0.9-0.6,1.6-1.5,2.2-2.8L177.3,31.7z M170.2,17.6c-1.1,0-2.1,0.6-2.9,1.7c-0.8,1.1-1.3,2.7-1.5,4.9h7.8c0-1.9-0.2-3.4-0.8-4.7
	C172.3,18.3,171.4,17.6,170.2,17.6z M194.8,31.7c-0.4,1.3-1.2,2.5-2.4,3.4c-1.2,0.9-2.6,1.4-4.3,1.4c-1.7,0-3.2-0.4-4.4-1.2
	c-1.2-0.8-2.2-1.9-2.9-3.3c-0.6-1.4-1-3-1-4.9c0-2.1,0.3-3.9,1-5.4s1.6-2.7,2.8-3.5c1.2-0.8,2.7-1.3,4.3-1.3c2.2,0,3.8,0.7,5,2
	c1.2,1.3,1.8,3.3,1.8,5.9h-11.3c-0.1,0.7-0.1,1.4-0.1,2.3c0,1.6,0.3,3,0.8,4.1c0.5,1.2,1.2,2.1,2.1,2.7c0.9,0.6,1.8,0.9,2.7,0.9
	c1.2,0,2.2-0.3,3.1-0.8c0.9-0.6,1.6-1.5,2.2-2.8L194.8,31.7z M187.7,17.6c-1.1,0-2.1,0.6-2.9,1.7c-0.8,1.1-1.3,2.7-1.5,4.9h7.8
	c0-1.9-0.2-3.4-0.8-4.7C189.8,18.3,188.9,17.6,187.7,17.6z"/>
<circle fill="#B7CAD5" cx="22.5" cy="22.5" r="22.5"/>
<path fill="#FFFFFF" d="M7,38.4c-1.9,0-3.4-0.4-4.6-1.1c-1.2-0.7-2.1-1.6-2.7-2.8c-0.6-1.2-0.9-2.5-0.9-3.9c0-1.8,0.4-3.2,1.2-4.3
	c0.8-1.1,1.9-2,3.2-2.7c1.3-0.7,2.6-1.3,4-1.7c1.4-0.5,2.8-0.9,4.1-1.3c1.3-0.5,2.4-1,3.2-1.5c0.8-0.6,1.2-1.4,1.2-2.4v-4.8
	c0-1.1-0.2-2-0.6-2.9c-0.3-0.9-0.9-1.5-1.6-2c-0.7-0.5-1.6-0.7-2.8-0.7C9.9,6.3,9,6.4,8.2,6.7c-0.8,0.2-1.5,0.6-2,1.1
	c1.2,0.4,2,1.1,2.7,1.9c0.7,0.8,1,1.8,1,2.9c0,1.4-0.5,2.5-1.5,3.3c-1,0.8-2.1,1.2-3.4,1.2c-1.5,0-2.6-0.5-3.4-1.4
	c-0.7-1-1.1-2.1-1.1-3.4c0-1.2,0.3-2.2,0.9-3c0.6-0.8,1.5-1.5,2.5-2.2C5,6.5,6.4,6,8,5.6c1.7-0.4,3.4-0.6,5.3-0.6s3.6,0.2,5.1,0.6
	c1.5,0.4,2.8,1.1,3.8,2.1c1,1,1.6,2.1,1.9,3.5c0.3,1.4,0.4,3.1,0.4,5.2v16.9c0,1,0.1,1.8,0.3,2.2c0.2,0.4,0.6,0.6,1.1,0.6
	c0.4,0,0.7-0.1,1.1-0.3c0.4-0.2,0.8-0.5,1.2-0.7l0.6,1.1c-0.9,0.7-1.9,1.3-3,1.7c-1.1,0.4-2.4,0.6-3.8,0.6c-1.5,0-2.7-0.2-3.7-0.6
	c-0.9-0.5-1.6-1.1-2-1.8c-0.4-0.7-0.6-1.6-0.6-2.6c-1,1.6-2.2,2.8-3.6,3.7C10.8,38,9.1,38.4,7,38.4z M11.4,34.5
	c0.8,0,1.6-0.2,2.2-0.6c0.7-0.4,1.4-1.1,2-2V19.2c-0.4,0.6-0.9,1.2-1.6,1.7c-0.7,0.5-1.4,1-2.1,1.5c-0.7,0.5-1.5,1.1-2.2,1.7
	c-0.7,0.6-1.2,1.4-1.6,2.3c-0.4,0.9-0.6,2-0.6,3.3c0,1.6,0.4,2.8,1.1,3.6C9.4,34.1,10.3,34.5,11.4,34.5z"/>
</svg>
