<svg width="16" height="16" viewBox="0 0 16 16" fill="none" xmlns="http://www.w3.org/2000/svg">
<path  fill="currentColor" d="M8,1.062c-0.958,0-1.859,0.182-2.703,0.547c-0.833,0.365-1.568,0.865-2.203,1.5
	c-0.625,0.625-1.12,1.359-1.484,2.203C1.245,6.146,1.062,7.042,1.062,8c0,0.729,0.109,1.432,0.328,2.109
	c0.219,0.667,0.521,1.281,0.906,1.844c0.396,0.562,0.865,1.057,1.406,1.484c0.542,0.427,1.13,0.766,1.766,1.016
	c-0.021-0.271-0.042-0.594-0.062-0.969c-0.01-0.385,0.021-0.724,0.094-1.016c0.031-0.135,0.089-0.391,0.172-0.766
	c0.094-0.375,0.188-0.76,0.281-1.156c0.094-0.396,0.177-0.75,0.25-1.063c0.073-0.312,0.109-0.469,0.109-0.469
	S6.276,8.922,6.203,8.734C6.141,8.547,6.109,8.302,6.109,8c0-0.49,0.12-0.891,0.359-1.203c0.25-0.323,0.547-0.484,0.891-0.484
	c0.292,0,0.51,0.099,0.656,0.297c0.146,0.188,0.219,0.411,0.219,0.672c0,0.302-0.073,0.661-0.219,1.078
	C7.88,8.766,7.76,9.177,7.656,9.594c-0.083,0.344-0.021,0.641,0.188,0.891c0.219,0.24,0.5,0.359,0.844,0.359
	c0.615,0,1.13-0.292,1.547-0.875c0.417-0.594,0.625-1.359,0.625-2.297c0-0.833-0.271-1.51-0.812-2.031
	C9.516,5.109,8.823,4.844,7.969,4.844c-0.979,0-1.745,0.312-2.297,0.938C5.12,6.396,4.844,7.089,4.844,7.859
	c0,0.302,0.047,0.599,0.141,0.891c0.104,0.292,0.229,0.521,0.375,0.688c0.031,0.031,0.047,0.068,0.047,0.109
	c0.01,0.031,0.01,0.062,0,0.094c-0.031,0.104-0.068,0.25-0.109,0.437c-0.042,0.188-0.068,0.302-0.078,0.344
	c-0.021,0.073-0.052,0.115-0.094,0.125c-0.031,0.01-0.078,0-0.141-0.031c-0.438-0.198-0.781-0.568-1.031-1.109
	S3.578,8.344,3.578,7.844c0-0.552,0.099-1.078,0.297-1.578c0.198-0.51,0.49-0.958,0.875-1.344C5.135,4.536,5.609,4.229,6.172,4
	c0.573-0.24,1.234-0.359,1.984-0.359c0.594,0,1.151,0.104,1.672,0.312c0.521,0.198,0.974,0.479,1.359,0.844
	c0.385,0.354,0.688,0.776,0.906,1.266c0.219,0.479,0.328,1.005,0.328,1.578c0,0.604-0.089,1.167-0.266,1.688
	c-0.177,0.521-0.427,0.979-0.75,1.375c-0.312,0.385-0.693,0.693-1.141,0.922c-0.438,0.219-0.917,0.328-1.438,0.328
	c-0.354,0-0.682-0.078-0.984-0.234c-0.292-0.156-0.495-0.344-0.609-0.563c0,0-0.062,0.234-0.188,0.703
	c-0.115,0.469-0.193,0.786-0.234,0.953c-0.083,0.302-0.214,0.625-0.391,0.969c-0.177,0.333-0.333,0.615-0.469,0.844
	c0.323,0.104,0.656,0.182,1,0.234C7.297,14.911,7.646,14.938,8,14.938c0.958,0,1.854-0.182,2.688-0.547
	c0.844-0.365,1.578-0.859,2.203-1.484c0.635-0.625,1.135-1.359,1.5-2.203C14.755,9.859,14.938,8.958,14.938,8
	s-0.182-1.854-0.547-2.688c-0.365-0.844-0.865-1.578-1.5-2.203c-0.625-0.635-1.359-1.135-2.203-1.5C9.854,1.245,8.958,1.062,8,1.062
	z"/>
</svg>
