<svg width="16" height="16" viewBox="0 0 16 16" fill="none" xmlns="http://www.w3.org/2000/svg">
<path  fill="currentColor" d="M15.844,4.728c0,0-0.047-0.203-0.141-0.609c-0.094-0.406-0.26-0.729-0.5-0.969
	c-0.302-0.323-0.609-0.51-0.922-0.562c-0.302-0.062-0.531-0.104-0.687-0.125c-0.552-0.042-1.156-0.073-1.813-0.094
	c-0.656-0.021-1.265-0.036-1.828-0.047c-0.552-0.01-1.015-0.016-1.39-0.016S8,2.306,8,2.306s-0.187,0-0.562,0
	S6.594,2.311,6.031,2.322c-0.552,0.01-1.156,0.026-1.812,0.047C3.563,2.389,2.958,2.421,2.406,2.462
	C2.25,2.483,2.016,2.525,1.703,2.587C1.401,2.639,1.099,2.827,0.797,3.15c-0.24,0.24-0.406,0.562-0.5,0.969S0.156,4.728,0.156,4.728
	S0.13,4.999,0.078,5.54C0.026,6.082,0,6.676,0,7.322V8.54c0,0.646,0.026,1.24,0.078,1.781c0.052,0.531,0.078,0.797,0.078,0.797
	s0.047,0.208,0.141,0.625c0.094,0.406,0.26,0.729,0.5,0.969c0.302,0.323,0.625,0.51,0.969,0.563
	c0.354,0.052,0.619,0.094,0.797,0.125c0.322,0.031,0.786,0.057,1.39,0.078c0.604,0.021,1.203,0.036,1.797,0.047
	c0.604,0.01,1.13,0.021,1.578,0.031c0.448,0,0.672,0,0.672,0s0.188,0,0.563,0s0.838-0.005,1.39-0.016
	c0.563-0.021,1.172-0.042,1.828-0.062c0.657-0.021,1.266-0.052,1.828-0.094c0.157-0.01,0.386-0.042,0.688-0.094
	c0.302-0.062,0.604-0.255,0.906-0.578c0.24-0.24,0.406-0.562,0.5-0.969c0.094-0.417,0.141-0.625,0.141-0.625
	s0.026-0.266,0.078-0.797C15.974,9.78,16,9.186,16,8.54V7.322c0-0.646-0.026-1.24-0.078-1.781
	C15.87,4.999,15.844,4.728,15.844,4.728z"/>
<polygon style="fill:#FFFFFF;" points="6.344,10.009 6.344,5.509 10.672,7.759 "/>
</svg>
