<svg width="16" height="16" viewBox="0 0 16 16" fill="none" xmlns="http://www.w3.org/2000/svg">
<path fill="currentColor" d="M14.5,0h-13C1.083,0,0.729,0.146,0.437,0.438C0.146,0.729,0,1.083,0,1.5v13
	c0,0.417,0.146,0.771,0.437,1.062C0.729,15.854,1.083,16,1.5,16h13c0.417,0,0.771-0.146,1.062-0.438
	C15.854,15.271,16,14.917,16,14.5v-13c0-0.417-0.146-0.771-0.438-1.062C15.271,0.146,14.917,0,14.5,0z"/>
<path style="fill:#FFFFFF;" d="M11,2.5c0-0.135,0.047-0.25,0.141-0.344C11.245,2.052,11.365,2,11.5,2h2
	c0.135,0,0.25,0.052,0.344,0.156C13.948,2.25,14,2.365,14,2.5v2c0,0.135-0.052,0.255-0.156,0.359C13.75,4.953,13.635,5,13.5,5h-2
	c-0.135,0-0.255-0.047-0.359-0.141C11.047,4.755,11,4.635,11,4.5V2.5z"/>
<path style="fill:#FFFFFF;" d="M8,5c0.823,0,1.526,0.292,2.109,0.875C10.703,6.458,11,7.167,11,8c0,0.823-0.292,1.531-0.875,2.125
	C9.542,10.708,8.833,11,8,11c-0.823,0-1.531-0.292-2.125-0.875C5.292,9.542,5,8.833,5,8c0-0.823,0.292-1.526,0.875-2.109
	C6.458,5.297,7.167,5,8,5z"/>
<path style="fill:#FFFFFF;" d="M14,13.5c0,0.135-0.052,0.255-0.156,0.359C13.75,13.953,13.635,14,13.5,14h-11
	c-0.135,0-0.255-0.047-0.359-0.141C2.047,13.755,2,13.635,2,13.5V7h1.094C3.062,7.156,3.036,7.318,3.016,7.484
	C3.005,7.651,3,7.823,3,8c0,0.688,0.13,1.339,0.391,1.953c0.26,0.604,0.614,1.135,1.062,1.594c0.458,0.448,0.99,0.802,1.594,1.062
	C6.661,12.87,7.312,13,8,13c0.687,0,1.333-0.13,1.937-0.391c0.615-0.26,1.146-0.615,1.594-1.062c0.459-0.458,0.818-0.99,1.078-1.594
	C12.87,9.339,13,8.688,13,8c0-0.167-0.01-0.333-0.031-0.5c-0.011-0.177-0.032-0.344-0.063-0.5H14V13.5z"/>
</svg>
