<svg width="16" height="16" viewBox="0 0 16 16" fill="none" xmlns="http://www.w3.org/2000/svg">
<path  fill="currentColor" d="M16,3.031c-0.292,0.135-0.599,0.25-0.922,0.344c-0.312,0.083-0.635,0.141-0.969,0.172
	C14.453,3.349,14.75,3.094,15,2.781s0.438-0.661,0.562-1.047c-0.323,0.188-0.661,0.349-1.016,0.484
	c-0.344,0.135-0.703,0.24-1.078,0.312c-0.292-0.312-0.646-0.562-1.062-0.75C11.99,1.594,11.547,1.5,11.078,1.5
	c-0.448,0-0.875,0.089-1.281,0.266C9.401,1.932,9.052,2.167,8.75,2.469C8.458,2.76,8.224,3.104,8.047,3.5
	c-0.167,0.396-0.25,0.823-0.25,1.281c0,0.125,0.005,0.25,0.016,0.375c0.021,0.125,0.042,0.25,0.062,0.375
	C7.198,5.5,6.536,5.396,5.891,5.219c-0.635-0.177-1.24-0.411-1.812-0.703C3.505,4.214,2.969,3.859,2.469,3.453
	c-0.5-0.406-0.953-0.859-1.359-1.359c-0.135,0.24-0.245,0.5-0.328,0.781C0.708,3.156,0.672,3.448,0.672,3.75
	c0,0.562,0.13,1.083,0.391,1.562c0.271,0.479,0.625,0.87,1.062,1.172c-0.26-0.01-0.521-0.052-0.781-0.125
	c-0.25-0.073-0.484-0.172-0.703-0.297c0,0.01,0,0.021,0,0.031c0,0,0,0.005,0,0.016c0,0.792,0.25,1.49,0.75,2.094
	c0.51,0.604,1.141,0.979,1.891,1.125C3.146,9.37,3.005,9.401,2.859,9.422c-0.146,0.01-0.297,0.016-0.453,0.016
	c-0.104,0-0.208-0.005-0.312-0.016C2,9.411,1.901,9.401,1.797,9.391C2.005,10.036,2.385,10.573,2.938,11
	c0.562,0.427,1.203,0.651,1.922,0.672c-0.562,0.438-1.193,0.781-1.891,1.031c-0.688,0.25-1.417,0.375-2.188,0.375
	c-0.136,0-0.271-0.005-0.406-0.016C0.25,13.052,0.125,13.042,0,13.031c0.365,0.229,0.745,0.438,1.141,0.625
	c0.396,0.177,0.802,0.328,1.219,0.453c0.427,0.125,0.865,0.224,1.312,0.297C4.12,14.469,4.573,14.5,5.031,14.5
	c1.51,0,2.844-0.281,4-0.844c1.167-0.573,2.146-1.307,2.938-2.203c0.792-0.896,1.391-1.896,1.797-3
	c0.406-1.115,0.609-2.214,0.609-3.297c0-0.073-0.005-0.141-0.016-0.203c0-0.073,0-0.146,0-0.219c0.323-0.229,0.62-0.484,0.891-0.766
	C15.531,3.677,15.781,3.365,16,3.031z"/>
</svg>
