<?xml version="1.0" standalone="no"?>
<!DOCTYPE svg PUBLIC "-//W3C//DTD SVG 20010904//EN"
 "http://www.w3.org/TR/2001/REC-SVG-20010904/DTD/svg10.dtd">
<svg version="1.0" xmlns="http://www.w3.org/2000/svg"
 width="700.000000pt" height="700.000000pt" viewBox="0 0 700.000000 700.000000"
 preserveAspectRatio="xMidYMid meet">
<metadata>
Created by potrace 1.14, written by Peter Selinger 2001-2017
</metadata>
<g transform="translate(0.000000,700.000000) scale(0.100000,-0.100000)"
fill="#000000" stroke="none">
<path d="M3215 6989 c-648 -56 -1263 -286 -1780 -664 -125 -92 -277 -220 -250
-212 86 26 293 65 475 89 154 20 684 17 850 -5 499 -67 810 -217 1031 -495
139 -174 203 -350 245 -672 16 -122 18 -290 24 -1775 5 -1422 8 -1647 21
-1695 36 -127 76 -163 189 -168 87 -4 137 12 252 81 127 77 110 79 163 -20 26
-47 43 -89 38 -92 -154 -114 -349 -220 -486 -266 -379 -127 -949 -107 -1195
42 -85 52 -191 150 -238 220 -52 78 -91 199 -105 321 l-12 102 -49 -72 c-217
-315 -516 -545 -808 -621 -143 -38 -220 -49 -394 -56 l-159 -6 91 -86 c409
-389 968 -693 1533 -833 306 -76 514 -101 854 -100 270 0 420 13 645 55 790
150 1503 567 2025 1184 443 524 711 1143 801 1850 25 195 25 615 0 810 -90
707 -357 1324 -801 1850 -119 141 -349 366 -490 478 -515 413 -1132 667 -1810
747 -126 15 -528 21 -660 9z"/>
<path d="M1525 6014 c-144 -20 -338 -77 -415 -121 -52 -30 -140 -94 -140 -103
0 -3 21 -14 48 -23 171 -64 373 -248 452 -412 54 -114 65 -169 64 -325 0 -120
-3 -144 -28 -214 -32 -94 -62 -147 -118 -211 -91 -103 -259 -204 -398 -240
-148 -37 -341 -30 -483 20 -121 42 -248 140 -292 225 -9 17 -19 29 -22 26 -11
-11 -62 -179 -92 -305 -72 -299 -96 -505 -95 -836 0 -227 9 -378 30 -493 l6
-32 107 102 c120 116 206 178 366 265 272 147 467 221 1060 403 221 68 379
131 560 223 175 89 254 175 290 315 14 54 16 128 12 560 -4 559 -3 552 -85
754 -50 121 -82 168 -173 252 -78 72 -174 125 -274 152 -58 15 -314 27 -380
18z"/>
<path d="M2397 3971 c-48 -81 -161 -181 -399 -351 -525 -376 -606 -453 -715
-680 -88 -184 -108 -286 -108 -550 0 -183 3 -214 24 -290 58 -214 184 -361
369 -430 120 -45 292 -45 429 1 127 42 282 166 386 308 l47 63 0 979 c0 538
-4 979 -8 979 -4 0 -15 -13 -25 -29z"/>
</g>
</svg>
